<svg height="512" viewBox="0 0 128 128" width="512" xmlns="http://www.w3.org/2000/svg"><g id="Circle_Grid" data-name="Circle Grid"><circle cx="64" cy="64" fill="#69b0ee" r="64"/></g><g id="icon"><path d="m64 62.248 17.814 39.609a1.413 1.413 0 0 0 2.658-.227l3-11.661a1.413 1.413 0 0 1 2.026-.9l10.889 5.724a1.413 1.413 0 0 0 1.941-1.843l-10.577-22.936z" fill="#da364c"/><path d="m105 37.565v26.2a8.1 8.1 0 0 1 -5.51 7.72c-5.83 1.91-15.76 2.83-27.32-5.92-1.08-.82-2.17-1.73-3.28-2.72l-2.16-14.17-.68-4.46-.42-2.73a18.792 18.792 0 0 1 2.26-2.82c4.05-4.31 13.78-11.7 31.06-8.63a8.649 8.649 0 0 1 5.09 3.87 7.23 7.23 0 0 1 .96 3.66z" fill="#ef5261"/><path d="m84.82 45.915c-2.42.74-4.72 1.41-6.84 1.95a14.943 14.943 0 0 0 -8.25-8.56 28.135 28.135 0 0 1 11.14-6.36c10.07-3.06 19.11-2.64 20.2.95s-6.19 8.96-16.25 12.02z" fill="#da364c"/><path d="m64 62.248-17.814 39.609a1.413 1.413 0 0 1 -2.658-.227l-3-11.661a1.413 1.413 0 0 0 -2.026-.9l-10.891 5.725a1.413 1.413 0 0 1 -1.941-1.843l10.579-22.937z" fill="#da364c"/><path d="m62.37 41.485-.42 2.73-.68 4.46-2.16 14.17c-1.11.99-2.2 1.9-3.28 2.72-11.56 8.75-21.49 7.83-27.32 5.92a8.1 8.1 0 0 1 -5.51-7.72v-26.2a7.229 7.229 0 0 1 .96-3.66 8.649 8.649 0 0 1 5.09-3.87c17.28-3.07 27.01 4.32 31.06 8.63a18.787 18.787 0 0 1 2.26 2.82z" fill="#ef5261"/><path d="m58.27 39.305a14.943 14.943 0 0 0 -8.25 8.56c-2.12-.54-4.42-1.21-6.84-1.95-10.06-3.06-17.34-8.44-16.25-12.02s10.13-4.01 20.2-.95a28.135 28.135 0 0 1 11.14 6.36z" fill="#da364c"/><path d="m62.37 47.335a2.226 2.226 0 0 1 -1.1 1.34c-1.93 1.12-6.03.54-11.25-.81a14.943 14.943 0 0 1 8.25-8.56 15.66 15.66 0 0 1 3.68 4.91 4.629 4.629 0 0 1 .42 3.12z" fill="#cc2146"/><path d="m61.27 48.675-2.16 14.17c-1.11.99-2.2 1.9-3.28 2.72a14.892 14.892 0 0 1 -6.76-12.48 14.65 14.65 0 0 1 .95-5.22c5.22 1.35 9.32 1.935 11.25.81z" fill="#da364c"/><path d="m62.37 41.485-.42 2.73a15.66 15.66 0 0 0 -3.68-4.91 16.667 16.667 0 0 1 1.84-.64 18.787 18.787 0 0 1 2.26 2.82z" fill="#da364c"/><path d="m77.98 47.865c-5.22 1.35-9.32 1.93-11.25.81a2.226 2.226 0 0 1 -1.1-1.34 4.629 4.629 0 0 1 .42-3.12 15.661 15.661 0 0 1 3.68-4.91 14.943 14.943 0 0 1 8.25 8.56z" fill="#cc2146"/><path d="m69.73 39.305a15.661 15.661 0 0 0 -3.68 4.91l-.42-2.73a18.792 18.792 0 0 1 2.26-2.82 16.668 16.668 0 0 1 1.84.64z" fill="#da364c"/><path d="m78.93 53.085a14.892 14.892 0 0 1 -6.76 12.48c-1.08-.82-2.17-1.73-3.28-2.72l-2.16-14.17c1.93 1.12 6.03.54 11.25-.81a14.65 14.65 0 0 1 .95 5.22z" fill="#da364c"/><circle cx="64" cy="53.084" fill="#ef5261" r="12.931"/></g></svg>